/* XPM */
static char *result[] = {
/* columns rows colors chars-per-pixel */
"64 64 10 1 ",
"  c black",
". c #432F00",
"X c #004700",
"o c #005200",
"O c DarkGreen",
"+ c gray46",
"@ c #008000",
"# c ForestGreen",
"$ c #FFFF30",
"% c white",
/* pixels */
"@@@@@@OO@@@@OOOOOO@@@@@@@@@@OOOO@@OOOO##@@@@@@@@ooOOoo@@@@XXXX@@",
"@@@@@@OO@@@@OOOOOO@@@@@@@@@@OOOO@@OOOO##@@@@@@@@ooOOoo@@@@XXXX@@",
"@@@@@@##oo##oo##@@@@@@##OOOOOO@@@@@@@@@@@@OOXXOO@@@@@@OOOOOOOOOO",
"@@@@@@##oo##oo##@@@@@@##OOOOOO@@@@@@@@@@@@OOXXOO@@@@@@OOOOOOOOOO",
"@@@@ooOO##@@@@                                    @@@@@@@@OO@@OO",
"@@@@ooOO##@@@@                                    @@@@@@@@OO@@OO",
"OO@@oo@@XX@@  $$$$..........$$$$$$............$$$$  @@ooXX@@OOOO",
"OO@@oo@@XX@@  $$$$..........$$$$$$............$$$$  @@ooXX@@OOOO",
"@@oo@@##@@  $$$$............$$$$$$............$$$$$$  @@oo##OO@@",
"@@oo@@##@@  $$$$............$$$$$$............$$$$$$  @@oo##OO@@",
"@@XX@@@@  $$$$............$$$$..............$$....$$$$  @@@@##@@",
"@@XX@@@@  $$$$............$$$$..............$$....$$$$  @@@@##@@",
"@@##XX  $$$$..............$$$$..............$$....$$$$$$  OO@@oo",
"@@##XX  $$$$..............$$$$..............$$....$$$$$$  OO@@oo",
"@@XX@@  $$$$..............$$$$..............$$....$$$$$$  OO@@##",
"@@XX@@  $$$$..............$$$$..............$$....$$$$$$  OO@@##",
"@@@@@@  %%$$..............$$$$..............$$....$$$$$$  @@OOOO",
"@@@@@@  %%$$..............$$$$..............$$....$$$$$$  @@OOOO",
"@@##@@  %%$$$$$$$$$$$$$$$$$$$$$$$$$$$$$$$$$$$$$$$$$$$$$$  XX@@@@",
"@@##@@  %%$$$$$$$$$$$$$$$$$$$$$$$$$$$$$$$$$$$$$$$$$$$$$$  XX@@@@",
"oo@@XX  %%%%%%%%$$%%%%$$$$$$$$$$$$$$$$$$$$$$$$$$$$$$$$$$  XX@@XX",
"oo@@XX  %%%%%%%%$$%%%%$$$$$$$$$$$$$$$$$$$$$$$$$$$$$$$$$$  XX@@XX",
"@@@@@@                                            $$$$$$  XX@@@@",
"@@@@@@                                            $$$$$$  XX@@@@",
"@@##@@@@@@@@  $$$$++++++++++++++++++++++++++++++++$$      @@@@OO",
"@@##@@@@@@@@  $$$$++++++++++++++++++++++++++++++++$$      @@@@OO",
"OO@@@@OO@@  $$$$++++++++++++++++++++++++++++++++$$$$$$$$  @@@@OO",
"OO@@@@OO@@  $$$$++++++++++++++++++++++++++++++++$$$$$$$$  @@@@OO",
"OO@@OOOO  $$$$++++++++++++++++++++++++++++++++$$$$$$..$$  @@OO@@",
"OO@@OOOO  $$$$++++++++++++++++++++++++++++++++$$$$$$..$$  @@OO@@",
"@@@@@@  $$$$$$$$$$$$$$$$$$$$$$$$$$$$$$$$$$$$$$$$$$....$$  OOOO@@",
"@@@@@@  $$$$$$$$$$$$$$$$$$$$$$$$$$$$$$$$$$$$$$$$$$....$$  OOOO@@",
"@@@@@@  $$$$$$$$$$$$$$$$$$$$$$$$$$$$$$$$$$$$$$$$......$$  OOOO@@",
"@@@@@@  $$$$$$$$$$$$$$$$$$$$$$$$$$$$$$$$$$$$$$$$......$$  OOOO@@",
"OO@@@@  $$$$........$$$$........$$$$........$$$$......$$  @@XX@@",
"OO@@@@  $$$$........$$$$........$$$$........$$$$......$$  @@XX@@",
"OO##@@  $$$$........$$$$........$$$$........$$$$......$$  @@@@@@",
"OO##@@  $$$$........$$$$........$$$$........$$$$......$$  @@@@@@",
"@@##XX  $$$$........$$$$........$$$$........$$$$......$$  @@@@@@",
"@@##XX  $$$$........$$$$........$$$$........$$$$......$$  @@@@@@",
"##ooOO  %%%%........%%$$........$$$$........$$$$......$$  @@@@@@",
"##ooOO  %%%%........%%$$........$$$$........$$$$......$$  @@@@@@",
"@@@@XX  %%%%........%%%%$$$$$$$$$$$$........$$$$......$$  @@oo@@",
"@@@@XX  %%%%........%%%%$$$$$$$$$$$$........$$$$......$$  @@oo@@",
"@@@@@@  $$$$..............$$$$..............$$$$......$$  ####@@",
"@@@@@@  $$$$..............$$$$..............$$$$......$$  ####@@",
"XX@@XX  $$$$..............$$$$..............$$$$......$$  @@@@@@",
"XX@@XX  $$$$..............$$$$..............$$$$......$$  @@@@@@",
"@@####  $$$$..............$$$$..............$$$$......$$  @@OOOO",
"@@####  $$$$..............$$$$..............$$$$......$$  @@OOOO",
"@@XX##  %%%%..............$$$$..............$$$$....$$$$  @@oo@@",
"@@XX##  %%%%..............$$$$..............$$$$....$$$$  @@oo@@",
"@@XX##  %%%%..............$$$$..............$$$$..$$$$  @@@@OO@@",
"@@XX##  %%%%..............$$$$..............$$$$..$$$$  @@@@OO@@",
"XX@@OO  %%%%%%%%%%$$%%%%$$$$$$$$$$$$$$$$$$$$$$$$$$$$  ##@@@@####",
"XX@@OO  %%%%%%%%%%$$%%%%$$$$$$$$$$$$$$$$$$$$$$$$$$$$  ##@@@@####",
"@@@@@@  %%%%%%%%%%$$%%%%$$$$$$$$$$$$$$$$$$$$$$$$$$  @@@@@@@@OO##",
"@@@@@@  %%%%%%%%%%$$%%%%$$$$$$$$$$$$$$$$$$$$$$$$$$  @@@@@@@@OO##",
"@@@@OO                                            @@@@oooo@@##XX",
"@@@@OO                                            @@@@oooo@@##XX",
"oooooo@@@@@@@@XX@@@@XX######@@@@@@####OOOO@@@@##XX@@##OOOOOO@@XX",
"oooooo@@@@@@@@XX@@@@XX######@@@@@@####OOOO@@@@##XX@@##OOOOOO@@XX",
"@@@@@@ooOOOO@@@@@@@@@@@@@@@@OOOO@@OOOO##@@@@####OOOOOOOOOOOO@@@@",
"@@@@@@ooOOOO@@@@@@@@@@@@@@@@OOOO@@OOOO##@@@@####OOOOOOOOOOOO@@@@"
};
