/* XPM */
static char *_0e094e6a38c4862f83c5aa3f621844e2BgZjo7YGIe5yB68[] = {
/* columns rows colors chars-per-pixel */
"64 64 2 1 ",
"  c None",
". c #FFFF30",
/* pixels */
"                                                                ",
"                                                                ",
"                                                                ",
"                                                                ",
"                      ..................                        ",
"                      ..................                        ",
"                  ............................                  ",
"                  ............................                  ",
"                ..................................              ",
"                ..................................              ",
"              ......................................            ",
"              ......................................            ",
"            ............                ............            ",
"            ............                ............            ",
"          ..........                        ..........          ",
"          ..........                        ..........          ",
"          ........                            ........          ",
"          ........                            ........          ",
"        ..........                            ..........        ",
"        ..........                            ..........        ",
"        ........                              ..........        ",
"        ........                              ..........        ",
"      ..........                                ........        ",
"      ..........                                ........        ",
"      ..........                                  ....          ",
"      ..........                                  ....          ",
"      ..........                                                ",
"      ..........                                                ",
"      ..........                                                ",
"      ..........                                                ",
"      ..........                                                ",
"      ..........                                                ",
"      ..........                                                ",
"      ..........                                                ",
"      ..........                                                ",
"      ..........                                                ",
"      ..........                                                ",
"      ..........                                                ",
"        ..........                                              ",
"        ..........                                              ",
"        ..........                            ........          ",
"        ..........                            ........          ",
"        ............                          ........          ",
"        ............                          ........          ",
"          ..........                          ........          ",
"          ..........                          ........          ",
"          ............                        ........          ",
"          ............                        ........          ",
"            ..........                    ............          ",
"            ..........                    ............          ",
"              ..........              ..............            ",
"              ..........              ..............            ",
"                ..................................              ",
"                ..................................              ",
"                ................................                ",
"                ................................                ",
"                ..............................                  ",
"                ..............................                  ",
"                  ..........................                    ",
"                  ..........................                    ",
"                        ..................                      ",
"                        ..................                      ",
"                                                                ",
"                                                                "
};
