/* XPM */
static char *result[] = {
/* columns rows colors chars-per-pixel */
"32 32 10 1 ",
"  c black",
". c #432F00",
"X c #004700",
"o c #005200",
"O c DarkGreen",
"+ c gray46",
"@ c #008000",
"# c ForestGreen",
"$ c #FFFF30",
"% c white",
/* pixels */
"@@@O@@OOO@@@@@OO@OO#@@@@oOo@@XX@",
"@@@#o#o#@@@#OOO@@@@@@OXO@@@OOOOO",
"@@oO#@@                  @@@@O@O",
"O@o@X@ $$.....$$$......$$ @oX@OO",
"@o@#@ $$......$$$......$$$ @o#O@",
"@X@@ $$......$$.......$..$$ @@#@",
"@#X $$.......$$.......$..$$$ O@o",
"@X@ $$.......$$.......$..$$$ O@#",
"@@@ %$.......$$.......$..$$$ @OO",
"@#@ %$$$$$$$$$$$$$$$$$$$$$$$ X@@",
"o@X %%%%$%%$$$$$$$$$$$$$$$$$ X@X",
"@@@                      $$$ X@@",
"@#@@@@ $$++++++++++++++++$   @@O",
"O@@O@ $$++++++++++++++++$$$$ @@O",
"O@OO $$++++++++++++++++$$$.$ @O@",
"@@@ $$$$$$$$$$$$$$$$$$$$$..$ OO@",
"@@@ $$$$$$$$$$$$$$$$$$$$...$ OO@",
"O@@ $$....$$....$$....$$...$ @X@",
"O#@ $$....$$....$$....$$...$ @@@",
"@#X $$....$$....$$....$$...$ @@@",
"#oO %%....%$....$$....$$...$ @@@",
"@@X %%....%%$$$$$$....$$...$ @o@",
"@@@ $$.......$$.......$$...$ ##@",
"X@X $$.......$$.......$$...$ @@@",
"@## $$.......$$.......$$...$ @OO",
"@X# %%.......$$.......$$..$$ @o@",
"@X# %%.......$$.......$$.$$ @@O@",
"X@O %%%%%$%%$$$$$$$$$$$$$$ #@@##",
"@@@ %%%%%$%%$$$$$$$$$$$$$ @@@@O#",
"@@O                      @@oo@#X",
"ooo@@@@X@@X###@@@##OO@@#X@#OOO@X",
"@@@oOO@@@@@@@@OO@OO#@@##OOOOOO@@"
};
