/* XPM */
static char *result[] = {
/* columns rows colors chars-per-pixel */
"64 64 13 1 ",
"  c black",
". c #432F00",
"X c #004600",
"o c #004700",
"O c #005100",
"+ c DarkGreen",
"@ c gray46",
"# c SaddleBrown",
"$ c #008A00",
"% c ForestGreen",
"& c peru",
"* c tan",
"= c white",
/* pixels */
"$$$$$$%%oooo++$$%%%%OO$$$$$$oooo$$%%$$oo$$$$$$$$OO$$$$$$++++++$$",
"$$$$$$%%oooo++$$%%%%OO$$$$$$oooo$$%%$$oo$$$$$$$$OO$$$$$$++++++$$",
"$$%%oo$$%%$$$$$$%%%%$$                      ++++$$++++oo%%++++$$",
"$$%%oo$$%%$$$$$$%%%%$$                      ++++$$++++oo%%++++$$",
"XX%%%%oo++OO$$$$      **&&****&&&&&&&&&&&&&&      $$$$$$$$$$++oo",
"XX%%%%oo++OO$$$$      **&&****&&&&&&&&&&&&&&      $$$$$$$$$$++oo",
"$$%%++$$$$oo$$  ********..................&&&&&&&&  ++%%oo%%++$$",
"$$%%++$$$$oo$$  ********..................&&&&&&&&  ++%%oo%%++$$",
"$$%%%%$$$$oooo  ********....##..##..##....&&&&&&&&  $$%%$$%%++++",
"$$%%%%$$$$oooo  ********....##..##..##....&&&&&&&&  $$%%$$%%++++",
"++++++%%++$$$$  ****........##..##..##........&&&&  $$++$$%%%%++",
"++++++%%++$$$$  ****........##..##..##........&&&&  $$++$$%%%%++",
"$$$$++%%++++  ****......##..##..##..##..##......&&&&  ++%%$$$$%%",
"$$$$++%%++++  ****......##..##..##..##..##......&&&&  ++%%$$$$%%",
"$$oo%%%%++oo  ****......##..##..##..##..##......&&&&  $$%%OO$$$$",
"$$oo%%%%++oo  ****......##..##..##..##..##......&&&&  $$%%OO$$$$",
"XX$$XX%%++$$  **....##..##..##..##..##..##..##....&&  ++%%++$$OO",
"XX$$XX%%++$$  **....##..##..##..##..##..##..##....&&  ++%%++$$OO",
"XX++$$%%%%%%  **....##..##..##..##..##..##..##....&&  ++XX$$$$$$",
"XX++$$%%%%%%  **....##..##..##..##..##..##..##....&&  ++XX$$$$$$",
"$$++$$$$%%$$  &&....##..##..##..##..##..##..##....&&  $$$$++++$$",
"$$++$$$$%%$$  &&....##..##..##..##..##..##..##....&&  $$$$++++$$",
"$$%%%%%%$$$$  **....##..##..##..##..##..##..##....&&  $$%%++$$%%",
"$$%%%%%%$$$$  **....##..##..##..##..##..##..##....&&  $$%%++$$%%",
"++$$$$$$$$OO  **....##..##..##..##..##..##..##....&&  ++++++$$%%",
"++$$$$$$$$OO  **....##..##..##..##..##..##..##....&&  ++++++$$%%",
"++$$oo$$$$$$  &&....##..##..##..##..##..##..##....&&  ++$$++OO%%",
"++$$oo$$$$$$  &&....##..##..##..##..##..##..##....&&  ++$$++OO%%",
"OO++++$$$$XX  &&..................................&&  %%$$$$++$$",
"OO++++$$$$XX  &&..................................&&  %%$$$$++$$",
"%%$$%%%%%%%%  &&....&&&&&&&&&&&&&&&&&&&&&&&&&&....&&  $$$$$$%%++",
"%%$$%%%%%%%%  &&....&&&&&&&&&&&&&&&&&&&&&&&&&&....&&  $$$$$$%%++",
"$$OO$$$$$$++  &&....&&&&&&&&&&&&&&&&&&====@@@@....&&  ++$$$$$$OO",
"$$OO$$$$$$++  &&....&&&&&&&&&&&&&&&&&&====@@@@....&&  ++$$$$$$OO",
"$$$$++++$$++  &&....&&&&&&&&&&&&&&&&&&&&&&&&&&....&&  ++%%%%$$%%",
"$$$$++++$$++  &&....&&&&&&&&&&&&&&&&&&&&&&&&&&....&&  ++%%%%$$%%",
"$$++%%oo$$++  &&..................................&&  $$++%%$$%%",
"$$++%%oo$$++  &&..................................&&  $$++%%$$%%",
"$$$$%%oo$$$$  &&....##..##..##..##..##..##..##....&&  $$$$$$oo$$",
"$$$$%%oo$$$$  &&....##..##..##..##..##..##..##....&&  $$$$$$oo$$",
"++$$$$$$$$$$  &&....##..##..##..##..##..##..##....**  %%ooOO$$$$",
"++$$$$$$$$$$  &&....##..##..##..##..##..##..##....**  %%ooOO$$$$",
"%%%%oo%%%%++  &&....##..##..##..##..##..##..##....**  %%oooo++$$",
"%%%%oo%%%%++  &&....##..##..##..##..##..##..##....**  %%oooo++$$",
"oooo$$++++%%  &&....##..##..##..##..##..##..##....&&  ++%%$$$$%%",
"oooo$$++++%%  &&....##..##..##..##..##..##..##....&&  ++%%$$$$%%",
"OO$$$$$$$$++  &&....##..##..##..##..##..##..##....**  oo$$XXXX%%",
"OO$$$$$$$$++  &&....##..##..##..##..##..##..##....**  oo$$XXXX%%",
"%%oo%%$$%%%%  &&....##..##..##..##..##..##..##....**  XX$$%%++%%",
"%%oo%%$$%%%%  &&....##..##..##..##..##..##..##....**  XX$$%%++%%",
"oo%%$$++%%%%  &&....##..##..##..##..##..##..##....**  %%$$$$%%%%",
"oo%%$$++%%%%  &&....##..##..##..##..##..##..##....**  %%$$$$%%%%",
"oo$$%%$$$$%%  &&....##..##..##..##..##..##..##....**  $$$$$$oo$$",
"oo$$%%$$$$%%  &&....##..##..##..##..##..##..##....**  $$$$$$oo$$",
"oo$$%%%%++%%  &&..................................**  ++%%OO$$$$",
"oo$$%%%%++%%  &&..................................**  ++%%OO$$$$",
"XXoooooo++%%  &&..##################**##********..**  XX++++$$$$",
"XXoooooo++%%  &&..##################**##********..**  XX++++$$$$",
"%%XX$$$$%%OO  &&..##################**##********..**  XXXX$$$$%%",
"%%XX$$$$%%OO  &&..##################**##********..**  XXXX$$$$%%",
"$$++++$$++$$                                          ++++++$$$$",
"$$++++$$++$$                                          ++++++$$$$",
"$$$$$$$$OO$$++%%%%$$++++++%%%%%%$$++++$$$$$$$$++XXXX$$$$++%%$$++",
"$$$$$$$$OO$$++%%%%$$++++++%%%%%%$$++++$$$$$$$$++XXXX$$$$++%%$$++"
};
