/* XPM */
static char *result[] = {
/* columns rows colors chars-per-pixel */
"32 32 13 1 ",
"  c black",
". c #432F00",
"X c #004600",
"o c #004700",
"O c #005100",
"+ c DarkGreen",
"@ c gray46",
"# c SaddleBrown",
"$ c #008A00",
"% c ForestGreen",
"& c peru",
"* c tan",
"= c white",
/* pixels */
"$$$%oo+$%%O$$$oo$%$o$$$$O$$$+++$",
"$%o$%$$$%%$           ++$++o%++$",
"X%%o+O$$   *&**&&&&&&&   $$$$$+o",
"$%+$$o$ ****.........&&&& +%o%+$",
"$%%$$oo ****..#.#.#..&&&& $%$%++",
"+++%+$$ **....#.#.#....&& $+$%%+",
"$$+%++ **...#.#.#.#.#...&& +%$$%",
"$o%%+o **...#.#.#.#.#...&& $%O$$",
"X$X%+$ *..#.#.#.#.#.#.#..& +%+$O",
"X+$%%% *..#.#.#.#.#.#.#..& +X$$$",
"$+$$%$ &..#.#.#.#.#.#.#..& $$++$",
"$%%%$$ *..#.#.#.#.#.#.#..& $%+$%",
"+$$$$O *..#.#.#.#.#.#.#..& +++$%",
"+$o$$$ &..#.#.#.#.#.#.#..& +$+O%",
"O++$$X &.................& %$$+$",
"%$%%%% &..&&&&&&&&&&&&&..& $$$%+",
"$O$$$+ &..&&&&&&&&&==@@..& +$$$O",
"$$++$+ &..&&&&&&&&&&&&&..& +%%$%",
"$+%o$+ &.................& $+%$%",
"$$%o$$ &..#.#.#.#.#.#.#..& $$$o$",
"+$$$$$ &..#.#.#.#.#.#.#..* %oO$$",
"%%o%%+ &..#.#.#.#.#.#.#..* %oo+$",
"oo$++% &..#.#.#.#.#.#.#..& +%$$%",
"O$$$$+ &..#.#.#.#.#.#.#..* o$XX%",
"%o%$%% &..#.#.#.#.#.#.#..* X$%+%",
"o%$+%% &..#.#.#.#.#.#.#..* %$$%%",
"o$%$$% &..#.#.#.#.#.#.#..* $$$o$",
"o$%%+% &.................* +%O$$",
"Xooo+% &.#########*#****.* X++$$",
"%X$$%O &.#########*#****.* XX$$%",
"$++$+$                     +++$$",
"$$$$O$+%%$+++%%%$++$$$$+XX$$+%$+"
};
