/* XPM */
static char *result[] = {
/* columns rows colors chars-per-pixel */
"32 32 10 1 ",
"  c black",
". c #004700",
"X c #004C00",
"o c DarkGreen",
"O c gray46",
"+ c #A70077",
"@ c #008000",
"# c ForestGreen",
"$ c #7B2AC8",
"% c white",
/* pixels */
"##@@XoXX@@@###X.#XXX@@@@o@@@@#@@",
"@oX#@@@@Xo#o@o     @@@@ooo#@XX@@",
"@@@@#######o@ +++++   @X#o#@@@@@",
"o.@#@#@@   @# $+++$  @@@Xo.#.@Xo",
"@@@###o %OO @@  +  @@@@@@@X#@@Xo",
"o.o@##o %OO @       @X@@@@@@o#.@",
"@#@@#@# %OO  %OO%OOO @.#####o@#.",
"#ooo@@X %OO %%OO%OOOO @.#.###@@.",
"##o#o## %OO %       O @#@###X##o",
"@oo#o@# %OO %       O @@@o@@###@",
"#oo##o# %OO %%OO OOOO @@X#@X@X@#",
"@#o#@o@ %OO %%OO OOOO @@@#o#@@@#",
"@#@@#@X     %%OO OOOO @@@.X@X@@#",
"Xo#@@@ %%OO %%OO OOOO @@o#@@@X@#",
"@#@.#@@      %OO OOO   @oooo.X##",
"@X@@##o %%% %       O O  @@@#@##",
"@#X.@@@ %%% %%OO%OOOO OOO .@@@@#",
"@o#.o@# %%% %%OO%OOOO OOO .##@@#",
"##@#@#@ %%% %%OO%OOOO OOO @@o.@#",
"#@@#@@@# OO %%OO%OOOO OOO @o.#@#",
"#@@@#.@##   %%OO%OOOO OOO @@.@##",
"@X####@##@@ %%OO%OOOO OOO @@@@@#",
"@@@X@####X@ %%OO%OOOO  OO XX@@@#",
"@@@@@@o@###              X#X@@o#",
"@@X###o##o@ %%%% %  % @@@X@@@@X#",
"@@X#@ooo@## %%%% %%%% @@@@X##@@#",
"@.@#@#@###@ OOOO OOOO @.@X@o#@@#",
"@.@@@##.#@@ OOOO OOOO @@@@@#@@o@",
"##@@@@#@o@@ OOOO OOOO @@.ooo@@@.",
"o@@@@@##@#X  OOO OOO  @@#oo@o...",
"@@@@.##o###@             @@@@.@@",
"@@@@@###@@##.@@@@@@@...###@@@o@o"
};
