/* XPM */
static char *_be86eed39d74b6ce2257c44655c8d13JIalwreSccLoa8bb[] = {
/* columns rows colors chars-per-pixel */
"64 64 2 1 ",
"  c None",
". c #7B2AC8",
/* pixels */
"                                                                ",
"                                                                ",
"                                                                ",
"                                                                ",
"                    ............                                ",
"                    ............                                ",
"                    ..................                          ",
"                    ..................                          ",
"                    ....          ........                      ",
"                    ....          ........                      ",
"                    ....              ......                    ",
"                    ....              ......                    ",
"                    ....                ......                  ",
"                    ....                ......                  ",
"                    ....                  ......                ",
"                    ....                  ......                ",
"                    ....                    ......              ",
"                    ....                    ......              ",
"                    ....                    ......              ",
"                    ....                    ......              ",
"                    ....                    ......              ",
"                    ....                    ......              ",
"                    ....                    ......              ",
"                    ....                    ......              ",
"                    ....                  ......                ",
"                    ....                  ......                ",
"                    ....                  ......                ",
"                    ....                  ......                ",
"                    ....              ........                  ",
"                    ....              ........                  ",
"                    ....          ..........                    ",
"                    ....          ..........                    ",
"                    ....................                        ",
"                    ....................                        ",
"                    ............                                ",
"                    ............                                ",
"                    ....                                        ",
"                    ....                                        ",
"                    ....                                        ",
"                    ....                                        ",
"                    ....                                        ",
"                    ....                                        ",
"                    ....                                        ",
"                    ....                                        ",
"                    ....                                        ",
"                    ....                                        ",
"                    ....                                        ",
"                    ....                                        ",
"                    ....                                        ",
"                    ....                                        ",
"                    ....                                        ",
"                    ....                                        ",
"                    ....                                        ",
"                    ....                                        ",
"                    ....                                        ",
"                    ....                                        ",
"                    ....                                        ",
"                    ....                                        ",
"                    ....                                        ",
"                    ....                                        ",
"                    ....                                        ",
"                    ....                                        ",
"                                                                ",
"                                                                "
};
