/* XPM */
static char *result[] = {
/* columns rows colors chars-per-pixel */
"64 64 10 1 ",
"  c black",
". c #004700",
"X c #004C00",
"o c DarkGreen",
"O c gray46",
"+ c #A70077",
"@ c #008000",
"# c ForestGreen",
"$ c #7B2AC8",
"% c white",
/* pixels */
"####@@@@XXooXXXX@@@@@@######XX..##XXXXXX@@@@@@@@oo@@@@@@@@##@@@@",
"####@@@@XXooXXXX@@@@@@######XX..##XXXXXX@@@@@@@@oo@@@@@@@@##@@@@",
"@@ooXX##@@@@@@@@XXoo##oo@@oo          @@@@@@@@oooooo##@@XXXX@@@@",
"@@ooXX##@@@@@@@@XXoo##oo@@oo          @@@@@@@@oooooo##@@XXXX@@@@",
"@@@@@@@@##############oo@@  ++++++++++      @@XX##oo##@@@@@@@@@@",
"@@@@@@@@##############oo@@  ++++++++++      @@XX##oo##@@@@@@@@@@",
"oo..@@##@@##@@@@      @@##  $$++++++$$    @@@@@@XXoo..##..@@XXoo",
"oo..@@##@@##@@@@      @@##  $$++++++$$    @@@@@@XXoo..##..@@XXoo",
"@@@@@@######oo  %%OOOO  @@@@    ++    @@@@@@@@@@@@@@XX##@@@@XXoo",
"@@@@@@######oo  %%OOOO  @@@@    ++    @@@@@@@@@@@@@@XX##@@@@XXoo",
"oo..oo@@####oo  %%OOOO  @@              @@XX@@@@@@@@@@@@oo##..@@",
"oo..oo@@####oo  %%OOOO  @@              @@XX@@@@@@@@@@@@oo##..@@",
"@@##@@@@##@@##  %%OOOO    %%OOOO%%OOOOOO  @@..##########oo@@##..",
"@@##@@@@##@@##  %%OOOO    %%OOOO%%OOOOOO  @@..##########oo@@##..",
"##oooooo@@@@XX  %%OOOO  %%%%OOOO%%OOOOOOOO  @@..##..######@@@@..",
"##oooooo@@@@XX  %%OOOO  %%%%OOOO%%OOOOOOOO  @@..##..######@@@@..",
"####oo##oo####  %%OOOO  %%              OO  @@##@@######XX####oo",
"####oo##oo####  %%OOOO  %%              OO  @@##@@######XX####oo",
"@@oooo##oo@@##  %%OOOO  %%              OO  @@@@@@oo@@@@######@@",
"@@oooo##oo@@##  %%OOOO  %%              OO  @@@@@@oo@@@@######@@",
"##oooo####oo##  %%OOOO  %%%%OOOO  OOOOOOOO  @@@@XX##@@XX@@XX@@##",
"##oooo####oo##  %%OOOO  %%%%OOOO  OOOOOOOO  @@@@XX##@@XX@@XX@@##",
"@@##oo##@@oo@@  %%OOOO  %%%%OOOO  OOOOOOOO  @@@@@@##oo##@@@@@@##",
"@@##oo##@@oo@@  %%OOOO  %%%%OOOO  OOOOOOOO  @@@@@@##oo##@@@@@@##",
"@@##@@@@##@@XX          %%%%OOOO  OOOOOOOO  @@@@@@..XX@@XX@@@@##",
"@@##@@@@##@@XX          %%%%OOOO  OOOOOOOO  @@@@@@..XX@@XX@@@@##",
"XXoo##@@@@@@  %%%%OOOO  %%%%OOOO  OOOOOOOO  @@@@oo##@@@@@@XX@@##",
"XXoo##@@@@@@  %%%%OOOO  %%%%OOOO  OOOOOOOO  @@@@oo##@@@@@@XX@@##",
"@@##@@..##@@@@            %%OOOO  OOOOOO      @@oooooooo..XX####",
"@@##@@..##@@@@            %%OOOO  OOOOOO      @@oooooooo..XX####",
"@@XX@@@@####oo  %%%%%%  %%              OO  OO    @@@@@@##@@####",
"@@XX@@@@####oo  %%%%%%  %%              OO  OO    @@@@@@##@@####",
"@@##XX..@@@@@@  %%%%%%  %%%%OOOO%%OOOOOOOO  OOOOOO  ..@@@@@@@@##",
"@@##XX..@@@@@@  %%%%%%  %%%%OOOO%%OOOOOOOO  OOOOOO  ..@@@@@@@@##",
"@@oo##..oo@@##  %%%%%%  %%%%OOOO%%OOOOOOOO  OOOOOO  ..####@@@@##",
"@@oo##..oo@@##  %%%%%%  %%%%OOOO%%OOOOOOOO  OOOOOO  ..####@@@@##",
"####@@##@@##@@  %%%%%%  %%%%OOOO%%OOOOOOOO  OOOOOO  @@@@oo..@@##",
"####@@##@@##@@  %%%%%%  %%%%OOOO%%OOOOOOOO  OOOOOO  @@@@oo..@@##",
"##@@@@##@@@@@@##  OOOO  %%%%OOOO%%OOOOOOOO  OOOOOO  @@oo..##@@##",
"##@@@@##@@@@@@##  OOOO  %%%%OOOO%%OOOOOOOO  OOOOOO  @@oo..##@@##",
"##@@@@@@##..@@####      %%%%OOOO%%OOOOOOOO  OOOOOO  @@@@..@@####",
"##@@@@@@##..@@####      %%%%OOOO%%OOOOOOOO  OOOOOO  @@@@..@@####",
"@@XX########@@####@@@@  %%%%OOOO%%OOOOOOOO  OOOOOO  @@@@@@@@@@##",
"@@XX########@@####@@@@  %%%%OOOO%%OOOOOOOO  OOOOOO  @@@@@@@@@@##",
"@@@@@@XX@@########XX@@  %%%%OOOO%%OOOOOOOO    OOOO  XXXX@@@@@@##",
"@@@@@@XX@@########XX@@  %%%%OOOO%%OOOOOOOO    OOOO  XXXX@@@@@@##",
"@@@@@@@@@@@@oo@@######                            XX##XX@@@@oo##",
"@@@@@@@@@@@@oo@@######                            XX##XX@@@@oo##",
"@@@@XX######oo####oo@@  %%%%%%%%  %%    %%  @@@@@@XX@@@@@@@@XX##",
"@@@@XX######oo####oo@@  %%%%%%%%  %%    %%  @@@@@@XX@@@@@@@@XX##",
"@@@@XX##@@oooooo@@####  %%%%%%%%  %%%%%%%%  @@@@@@@@XX####@@@@##",
"@@@@XX##@@oooooo@@####  %%%%%%%%  %%%%%%%%  @@@@@@@@XX####@@@@##",
"@@..@@##@@##@@######@@  OOOOOOOO  OOOOOOOO  @@..@@XX@@oo##@@@@##",
"@@..@@##@@##@@######@@  OOOOOOOO  OOOOOOOO  @@..@@XX@@oo##@@@@##",
"@@..@@@@@@####..##@@@@  OOOOOOOO  OOOOOOOO  @@@@@@@@@@##@@@@oo@@",
"@@..@@@@@@####..##@@@@  OOOOOOOO  OOOOOOOO  @@@@@@@@@@##@@@@oo@@",
"####@@@@@@@@##@@oo@@@@  OOOOOOOO  OOOOOOOO  @@@@..oooooo@@@@@@..",
"####@@@@@@@@##@@oo@@@@  OOOOOOOO  OOOOOOOO  @@@@..oooooo@@@@@@..",
"oo@@@@@@@@@@####@@##XX    OOOOOO  OOOOOO    @@@@##oooo@@oo......",
"oo@@@@@@@@@@####@@##XX    OOOOOO  OOOOOO    @@@@##oooo@@oo......",
"@@@@@@@@..####oo######@@                          @@@@@@@@..@@@@",
"@@@@@@@@..####oo######@@                          @@@@@@@@..@@@@",
"@@@@@@@@@@######@@@@####..@@@@@@@@@@@@@@......######@@@@@@oo@@oo",
"@@@@@@@@@@######@@@@####..@@@@@@@@@@@@@@......######@@@@@@oo@@oo"
};
