/* XPM */
static char *result[] = {
/* columns rows colors chars-per-pixel */
"64 64 5 1 ",
"  c #004700",
". c #005400",
"X c DarkGreen",
"o c #008000",
"O c ForestGreen",
/* pixels */
"....oooooo..ooOOooooXXXXooooXXoooo..ooooOOOO..OOoooo....oooooooo",
"....oooooo..ooOOooooXXXXooooXXoooo..ooooOOOO..OOoooo....oooooooo",
"oo            OOoo..oooo  ooXXXXooXX    ooooooooOOooOOXXXXoooooo",
"oo            OOoo..oooo  ooXXXXooXX    ooooooooOOooOOXXXXoooooo",
"..OOooOOOOooooooooooooooooooooooooooooooooooXXOO....oo    XX  oo",
"..OOooOOOOooooooooooooooooooooooooooooooooooXXOO....oo    XX  oo",
"ooooooXXooooOOOOOO..OOOOoooo..OOOOOOooooooXXXXOO  XX..OOoooooooo",
"ooooooXXooooOOOOOO..OOOOoooo..OOOOOOooooooXXXXOO  XX..OOoooooooo",
"oo..  ooooooooXXooOOooooooooooooooooooooooooooooooooOOooOOOOoooo",
"oo..  ooooooooXXooOOooooooooooooooooooooooooooooooooOOooOOOOoooo",
"oo..ooooOOOOXXooooooooooooOOOOXXXXOOOOooXXOOXXOOOOOOOO      oooo",
"oo..ooooOOOOXXooooooooooooOOOOXXXXOOOOooXXOOXXOOOOOOOO      oooo",
"OO..ooooOOooooooOOOOOOOOOOOOOOOOOOOOOOooXXXXoooo  OOXXooooXXoo..",
"OO..ooooOOooooooOOOOOOOOOOOOOOOOOOOOOOooXXXXoooo  OOXXooooXXoo..",
"ooXXXXXXoooo..oooo..ooXXXXooOOooooXXXXXXooooXXooooooooooooOOoo..",
"ooXXXXXXoooo..oooo..ooXXXXooOOooooXXXXXXooooXXooooooooooooOOoo..",
"oo..OOooXXooOOOOooooOOooXX  ooOOXXooooooooooooooooooooooooooXXoo",
"oo..OOooXXooOOOOooooOOooXX  ooOOXXooooooooooooooooooooooooooXXoo",
"ooXXOOOOOOooOOXXOOOOOOooOOooooooOOOOooooOOOOooOOoo  ooXXXXoooooo",
"ooXXOOOOOOooOOXXOOOOOOooOOooooooOOOOooooOOOOooOOoo  ooXXXXoooooo",
"ooOO..oo..ooXXOOXXOOOOooOOoo..OOOOoo  OOoooooo....oooooooooooooo",
"ooOO..oo..ooXXOOXXOOOOooOOoo..OOOOoo  OOoooooo....oooooooooooooo",
"oooo..ooXXooooooOOOOOOOOooooooXXoo..ooooooXXooooooooOOOOOOoooooo",
"oooo..ooXXooooooOOOOOOOOooooooXXoo..ooooooXXooooooooOOOOOOoooooo",
"oo......oooooooo....OOOOooooooooOO..XXXXoooooooooooooooo    oo..",
"oo......oooooooo....OOOOooooooooOO..XXXXoooooooooooooooo    oo..",
"oooo..oooooo..ooooXX..XXooooooooooooooooooooooooooOOOOooOO  ....",
"oooo..oooooo..ooooXX..XXooooooooooooooooooooooooooOOOOooOO  ....",
"oo......ooooOOOOooooooooooooooooooooooooooOO  ooooooooXXoooo..oo",
"oo......ooooOOOOooooooooooooooooooooooooooOO  ooooooooXXoooo..oo",
"ooooooooOOooOOOOooOOOOXXoooo  OO  ooooOOooooooooOOoooooooooo....",
"ooooooooOOooOOOOooOOOOXXoooo  OO  ooooOOooooooooOOoooooooooo....",
"ooXXoooo..oooo..oo  ooooXXoo..OO..oooooo..ooooooXXOOXXOOoooo..oo",
"ooXXoooo..oooo..oo  ooooXXoo..OO..oooooo..ooooooXXOOXXOOoooo..oo",
"..ooooooOOoooooooo  ooooOOOOOOOOOOOOooOOoooo..ooXXOOooooOOooooXX",
"..ooooooOOoooooooo  ooooOOOOOOOOOOOOooOOoooo..ooXXOOooooOOooooXX",
"OOoooooooooooooooooo..ooOOOOXXXXXXXXoooooo    oo....oooo      oo",
"OOoooooooooooooooooo..ooOOOOXXXXXXXXoooooo    oo....oooo      oo",
"ooooooooOOooooooOOooooooooooXX  OO  ooooooooooooOOOO..oooooooooo",
"ooooooooOOooooooOOooooooooooXX  OO  ooooooooooooOOOO..oooooooooo",
"ooXXXXooooooooooXXooOO....oooo....ooooOOooooooOOoooooooooo..oooo",
"ooXXXXooooooooooXXooOO....oooo....ooooOOooooooOOoooooooooo..oooo",
"ooXXoooooooooo..ooooOO..ooooooOOOOoooooooooooooooooooooo..oooooo",
"ooXXoooooooooo..ooooOO..ooooooOOOOoooooooooooooooooooooo..oooooo",
"ooooXXoooooo  ooooooOOoo..ooooooooooooooooooOOOOooooooOOOOoo..oo",
"ooooXXoooooo  ooooooOOoo..ooooooooooooooooooOOOOooooooOOOOoo..oo",
"ooXXooooooooXXXXOOXXXXoooooooo..OOXXXXoooooooooooooooooo..OOOOOO",
"ooXXooooooooXXXXOOXXXXoooooooo..OOXXXXoooooooooooooooooo..OOOOOO",
"oooo..ooooooooXXoo..OO    ooXXOOooooooooooooOOoooo    oo....ooOO",
"oooo..ooooooooXXoo..OO    ooXXOOooooooooooooOOoooo    oo....ooOO",
"ooooXXXXooooooooooooXXOOOOOOooooOOOOOOXXXXooooooooooooooOOOOXXoo",
"ooooXXXXooooooooooooXXOOOOOOooooOOOOOOXXXXooooooooooooooOOOOXXoo",
"oo  OOOOooooooooXXooXXooooooooooXXOOoooooooooo........ooOOOO..oo",
"oo  OOOOooooooooXXooXXooooooooooXXOOoooooooooo........ooOOOO..oo",
"oo........ooooooooooooOOooooOOooXXOOOO..ooooooOOXXXXooOOoooooooo",
"oo........ooooooooooooOOooooOOooXXOOOO..ooooooOOXXXXooOOoooooooo",
"XXXXooOO  oooooo..ooooooooooooooooooooooooooXXooooooOO  ooOOXXOO",
"XXXXooOO  oooooo..ooooooooooooooooooooooooooXXooooooOO  ooOOXXOO",
"ooooooXXXXooooooooooooooooXX  ooXX..OOXXXX  oo....OOOO....OOOOOO",
"ooooooXXXXooooooooooooooooXX  ooXX..OOXXXX  oo....OOOO....OOOOOO",
"ooooooooXXooXXoo  oooo    ooooooooOOooooOOoooooooooo....OOOO....",
"ooooooooXXooXXoo  oooo    ooooooooOOooooOOoooooooooo....OOOO....",
"oooo..oooooooo  ooooooOOooOOoooo..oooo  ooooooXXOOOOOOOOOOoooooo",
"oooo..oooooooo  ooooooOOooOOoooo..oooo  ooooooXXOOOOOOOOOOoooooo"
};
