/* XPM */
static char *_272d902d3504c2cdbef8d44ace7afd79KpKLoD5s1nOZfW8[] = {
/* columns rows colors chars-per-pixel */
"64 64 2 1 ",
"  c black",
". c #004700",
/* pixels */
"................................................................",
"................................................................",
"................................................................",
"................................................................",
"................................................................",
"................................................................",
"................................................................",
"................................................................",
"................................................................",
"................................................................",
"................................................................",
"................................................................",
"..........    ..............    ................................",
"..........    ..............    ................................",
"........    ..                      ............................",
"........    ..                      ............................",
"..................................  ............................",
"..................................  ............................",
"................................................................",
"................................................................",
"................................................................",
"................................................................",
"................................................................",
"................................................................",
"................................................................",
"................................................................",
"................................................................",
"................................................................",
"................................................................",
"................................................................",
"................................................................",
"................................................................",
"................................................................",
"................................................................",
"................................................................",
"................................................................",
"................................................................",
"................................................................",
"........................................    ....................",
"........................................    ....................",
"............................                              ......",
"............................                              ......",
"............................  ..................................",
"............................  ..................................",
"................................................................",
"................................................................",
"................................................................",
"................................................................",
"................................................................",
"................................................................",
"................................................................",
"................................................................",
"................................................................",
"................................................................",
"................................................................",
"................................................................",
"................................................................",
"................................................................",
"................................................................",
"................................................................",
"................................................................",
"................................................................",
"................................................................",
"................................................................"
};
