/* XPM */
static char *result[] = {
/* columns rows colors chars-per-pixel */
"32 32 5 1 ",
"  c #004700",
". c #005400",
"X c DarkGreen",
"o c #008000",
"O c ForestGreen",
/* pixels */
"..ooo.oOooXXooXoo.ooOO.Ooo..oooo",
"o      Oo.oo oXXoX  ooooOoOXXooo",
".OoOOoooooooooooooooooXO..o  X o",
"oooXooOOO.OOoo.OOOoooXXO X.Ooooo",
"o. ooooXoOooooooooooooooooOoOOoo",
"o.ooOOXooooooOOXXOOoXOXOOOO   oo",
"O.ooOoooOOOOOOOOOOOoXXoo OXooXo.",
"oXXXoo.oo.oXXoOooXXXooXooooooOo.",
"o.OoXoOOooOoX oOXoooooooooooooXo",
"oXOOOoOXOOOoOoooOOooOOoOo oXXooo",
"oO.o.oXOXOOoOo.OOo Oooo..ooooooo",
"oo.oXoooOOOOoooXo.oooXooooOOOooo",
"o...oooo..OOooooO.XXoooooooo  o.",
"oo.ooo.ooX.XoooooooooooooOOoO ..",
"o...ooOOoooooooooooooO ooooXoo.o",
"ooooOoOOoOOXoo O ooOooooOooooo..",
"oXoo.oo.o ooXo.O.ooo.oooXOXOoo.o",
".oooOoooo ooOOOOOOoOoo.oXOooOooX",
"Oooooooooo.oOOXXXXooo  o..oo   o",
"ooooOoooOoooooX O ooooooOO.ooooo",
"oXXoooooXoO..oo..ooOoooOooooo.oo",
"oXooooo.ooO.oooOOooooooooooo.ooo",
"ooXooo oooOo.oooooooooOOoooOOo.o",
"oXooooXXOXXoooo.OXXooooooooo.OOO",
"oo.ooooXo.O  oXOooooooOoo  o..oO",
"ooXXooooooXOOOooOOOXXoooooooOOXo",
"o OOooooXoXoooooXOooooo....oOO.o",
"o....ooooooOooOoXOO.oooOXXoOoooo",
"XXoO ooo.oooooooooooooXoooO oOXO",
"oooXXooooooooX oX.OXX o..OO..OOO",
"ooooXoXo oo  ooooOooOooooo..OO..",
"oo.oooo oooOoOoo.oo oooXOOOOOooo"
};
