/* XPM */
static char *result[] = {
/* columns rows colors chars-per-pixel */
"32 32 3 1 ",
"  c DimGray",
". c #808080",
"X c #C0C0C0",
/* pixels */
"......  XX.............  XX.....",
"......  XX.............  XX.....",
"......  XX.............  XX.....",
"        XX               XX     ",
"        XX               XX     ",
"XXXXXXXXXXXXXXXXXXXXXXXXXXXXXXXX",
"XXXXXXXXXXXXXXXXXXXXXXXXXXXXXXXX",
"XX.............  XX............ ",
"XX.............  XX............ ",
"XX.............  XX............ ",
"XX               XX             ",
"XX               XX             ",
"XXXXXXXXXXXXXXXXXXXXXXXXXXXXXXXX",
"XXXXXXXXXXXXXXXXXXXXXXXXXXXXXXXX",
"......  XX.............  XX.....",
"......  XX.............  XX.....",
"......  XX.............  XX.....",
"        XX               XX     ",
"        XX               XX     ",
"XXXXXXXXXXXXXXXXXXXXXXXXXXXXXXXX",
"XXXXXXXXXXXXXXXXXXXXXXXXXXXXXXXX",
"XX.............  XX............ ",
"XX.............  XX............ ",
"XX.............  XX............ ",
"XX               XX             ",
"XX               XX             ",
"XXXXXXXXXXXXXXXXXXXXXXXXXXXXXXXX",
"XXXXXXXXXXXXXXXXXXXXXXXXXXXXXXXX",
"......  XX.............  XX.....",
"......  XX.............  XX.....",
"......  XX.............  XX.....",
"        XX               XX     "
};
