/* XPM */
static char *result[] = {
/* columns rows colors chars-per-pixel */
"64 64 3 1 ",
"  c DimGray",
". c #808080",
"X c #C0C0C0",
/* pixels */
"............    XXXX..........................    XXXX..........",
"............    XXXX..........................    XXXX..........",
"............    XXXX..........................    XXXX..........",
"............    XXXX..........................    XXXX..........",
"............    XXXX..........................    XXXX..........",
"............    XXXX..........................    XXXX..........",
"                XXXX                              XXXX          ",
"                XXXX                              XXXX          ",
"                XXXX                              XXXX          ",
"                XXXX                              XXXX          ",
"XXXXXXXXXXXXXXXXXXXXXXXXXXXXXXXXXXXXXXXXXXXXXXXXXXXXXXXXXXXXXXXX",
"XXXXXXXXXXXXXXXXXXXXXXXXXXXXXXXXXXXXXXXXXXXXXXXXXXXXXXXXXXXXXXXX",
"XXXXXXXXXXXXXXXXXXXXXXXXXXXXXXXXXXXXXXXXXXXXXXXXXXXXXXXXXXXXXXXX",
"XXXXXXXXXXXXXXXXXXXXXXXXXXXXXXXXXXXXXXXXXXXXXXXXXXXXXXXXXXXXXXXX",
"XXXX..........................    XXXX........................  ",
"XXXX..........................    XXXX........................  ",
"XXXX..........................    XXXX........................  ",
"XXXX..........................    XXXX........................  ",
"XXXX..........................    XXXX........................  ",
"XXXX..........................    XXXX........................  ",
"XXXX                              XXXX                          ",
"XXXX                              XXXX                          ",
"XXXX                              XXXX                          ",
"XXXX                              XXXX                          ",
"XXXXXXXXXXXXXXXXXXXXXXXXXXXXXXXXXXXXXXXXXXXXXXXXXXXXXXXXXXXXXXXX",
"XXXXXXXXXXXXXXXXXXXXXXXXXXXXXXXXXXXXXXXXXXXXXXXXXXXXXXXXXXXXXXXX",
"XXXXXXXXXXXXXXXXXXXXXXXXXXXXXXXXXXXXXXXXXXXXXXXXXXXXXXXXXXXXXXXX",
"XXXXXXXXXXXXXXXXXXXXXXXXXXXXXXXXXXXXXXXXXXXXXXXXXXXXXXXXXXXXXXXX",
"............    XXXX..........................    XXXX..........",
"............    XXXX..........................    XXXX..........",
"............    XXXX..........................    XXXX..........",
"............    XXXX..........................    XXXX..........",
"............    XXXX..........................    XXXX..........",
"............    XXXX..........................    XXXX..........",
"                XXXX                              XXXX          ",
"                XXXX                              XXXX          ",
"                XXXX                              XXXX          ",
"                XXXX                              XXXX          ",
"XXXXXXXXXXXXXXXXXXXXXXXXXXXXXXXXXXXXXXXXXXXXXXXXXXXXXXXXXXXXXXXX",
"XXXXXXXXXXXXXXXXXXXXXXXXXXXXXXXXXXXXXXXXXXXXXXXXXXXXXXXXXXXXXXXX",
"XXXXXXXXXXXXXXXXXXXXXXXXXXXXXXXXXXXXXXXXXXXXXXXXXXXXXXXXXXXXXXXX",
"XXXXXXXXXXXXXXXXXXXXXXXXXXXXXXXXXXXXXXXXXXXXXXXXXXXXXXXXXXXXXXXX",
"XXXX..........................    XXXX........................  ",
"XXXX..........................    XXXX........................  ",
"XXXX..........................    XXXX........................  ",
"XXXX..........................    XXXX........................  ",
"XXXX..........................    XXXX........................  ",
"XXXX..........................    XXXX........................  ",
"XXXX                              XXXX                          ",
"XXXX                              XXXX                          ",
"XXXX                              XXXX                          ",
"XXXX                              XXXX                          ",
"XXXXXXXXXXXXXXXXXXXXXXXXXXXXXXXXXXXXXXXXXXXXXXXXXXXXXXXXXXXXXXXX",
"XXXXXXXXXXXXXXXXXXXXXXXXXXXXXXXXXXXXXXXXXXXXXXXXXXXXXXXXXXXXXXXX",
"XXXXXXXXXXXXXXXXXXXXXXXXXXXXXXXXXXXXXXXXXXXXXXXXXXXXXXXXXXXXXXXX",
"XXXXXXXXXXXXXXXXXXXXXXXXXXXXXXXXXXXXXXXXXXXXXXXXXXXXXXXXXXXXXXXX",
"............    XXXX..........................    XXXX..........",
"............    XXXX..........................    XXXX..........",
"............    XXXX..........................    XXXX..........",
"............    XXXX..........................    XXXX..........",
"............    XXXX..........................    XXXX..........",
"............    XXXX..........................    XXXX..........",
"                XXXX                              XXXX          ",
"                XXXX                              XXXX          "
};
