/* XPM */
static char *b7dea3f09f5e4af49b7b2aeba9af65b6MwZx1zQQ5skJ2Oil[] = {
/* columns rows colors chars-per-pixel */
"64 64 2 1 ",
"  c black",
". c #432F00",
/* pixels */
"................................................................",
"................................................................",
"................................................................",
"................................................................",
"................................................................",
"................................................................",
"................................................................",
"................................................................",
"........                    ....................................",
"........                    ....................................",
"......................    ......................................",
"......................    ......................................",
"..................................                    ..........",
"..................................                    ..........",
"................................                        ........",
"................................                        ........",
"................................................................",
"................................................................",
"................................................................",
"................................................................",
"................              ..................................",
"................              ..................................",
"..............                ..................................",
"..............                ..................................",
"........                  ......................................",
"........                  ......................................",
"................................................................",
"................................................................",
"................................................................",
"................................................................",
"................................................................",
"................................................................",
"................................................................",
"................................................................",
"................................................................",
"................................................................",
"................................................................",
"................................................................",
"................................................................",
"................................................................",
"..........................                              ........",
"..........................                              ........",
"........................                                ........",
"........................                                ........",
"................................................................",
"................................................................",
"................................................................",
"................................................................",
"................................................................",
"................................................................",
"..........            ..........................................",
"..........            ..........................................",
"................................................................",
"................................................................",
"................................................................",
"................................................................",
"................................................................",
"................................................................",
"................................................................",
"................................................................",
"................................................................",
"................................................................",
"................................................................",
"................................................................"
};
